<svg xmlns="http://www.w3.org/2000/svg" width="3840" height="2160"><path d="M113,-258L575,-221L862,-254Z" fill="#d1ecc4" stroke="#d1ecc4" stroke-width="1.51"/><path d="M1020,1314L475,1332L1140,1326Z" fill="#3b6a92" stroke="#3b6a92" stroke-width="1.51"/><path d="M113,-258L862,-254L1295,-259Z" fill="#bae2c9" stroke="#bae2c9" stroke-width="1.51"/><path d="M862,-254L1084,-247L1295,-259Z" fill="#a8d2cc" stroke="#a8d2cc" stroke-width="1.51"/><path d="M1140,1326L475,1332L1531,1346Z" fill="#2b6290" stroke="#2b6290" stroke-width="1.51"/><path d="M1343,1325L1140,1326L1531,1346Z" fill="#1d518c" stroke="#1d518c" stroke-width="1.51"/><path d="M1295,-259L1616,-175L1922,-233Z" fill="#9da5bb" stroke="#9da5bb" stroke-width="1.51"/><path d="M2042,-34L2042,50L2096,-154Z" fill="#868591" stroke="#868591" stroke-width="1.51"/><path d="M1920,854L2066,983L2115,786Z" fill="#1f4b90" stroke="#1f4b90" stroke-width="1.51"/><path d="M2105,529L2105,689L2115,786Z" fill="#265d91" stroke="#265d91" stroke-width="1.51"/><path d="M2042,50L1960,223L2122,275Z" fill="#6f7d94" stroke="#6f7d94" stroke-width="1.51"/><path d="M2096,-154L2042,50L2122,275Z" fill="#7b808e" stroke="#7b808e" stroke-width="1.51"/><path d="M2101,389L2105,529L2122,275Z" fill="#476f90" stroke="#476f90" stroke-width="1.51"/><path d="M2105,529L2115,786L2122,275Z" fill="#326892" stroke="#326892" stroke-width="1.51"/><path d="M2066,983L1976,997L2141,1180Z" fill="#1c3784" stroke="#1c3784" stroke-width="1.51"/><path d="M1976,997L1949,1196L2141,1180Z" fill="#1e3185" stroke="#1e3185" stroke-width="1.51"/><path d="M1949,1196L2087,1258L2141,1180Z" fill="#182978" stroke="#182978" stroke-width="1.51"/><path d="M2115,786L2066,983L2141,1180Z" fill="#193c83" stroke="#193c83" stroke-width="1.51"/><path d="M2122,275L2115,786L2141,1180Z" fill="#1c568e" stroke="#1c568e" stroke-width="1.51"/><path d="M1960,223L1902,350L2101,389Z" fill="#59789b" stroke="#59789b" stroke-width="1.51"/><path d="M1894,576L1960,709L2105,529Z" fill="#32689e" stroke="#32689e" stroke-width="1.51"/><path d="M2101,389L1902,350L2105,529Z" fill="#477198" stroke="#477198" stroke-width="1.51"/><path d="M2105,529L1960,709L2105,689Z" fill="#2b6296" stroke="#2b6296" stroke-width="1.51"/><path d="M2105,689L1960,709L2115,786Z" fill="#235a95" stroke="#235a95" stroke-width="1.51"/><path d="M1960,223L2101,389L2122,275Z" fill="#597693" stroke="#597693" stroke-width="1.51"/><path d="M1960,71L1960,223L2042,50Z" fill="#7c8499" stroke="#7c8499" stroke-width="1.51"/><path d="M1902,350L1894,576L2105,529Z" fill="#4271a0" stroke="#4271a0" stroke-width="1.51"/><path d="M1960,709L1920,854L2115,786Z" fill="#24579a" stroke="#24579a" stroke-width="1.51"/><path d="M1920,854L1976,997L2066,983Z" fill="#204591" stroke="#204591" stroke-width="1.51"/><path d="M1922,-233L2042,-34L2096,-154Z" fill="#8e899a" stroke="#8e899a" stroke-width="1.51"/><path d="M1922,-233L1926,-24L2042,-34Z" fill="#918b9d" stroke="#918b9d" stroke-width="1.51"/><path d="M1949,1196L1974,1297L2087,1258Z" fill="#182978" stroke="#182978" stroke-width="1.51"/><path d="M852,1294L475,1332L1020,1314Z" fill="#456f93" stroke="#456f93" stroke-width="1.51"/><path d="M1960,71L2042,50L2042,-34Z" fill="#828596" stroke="#828596" stroke-width="1.51"/><path d="M1926,-24L1960,71L2042,-34Z" fill="#88889a" stroke="#88889a" stroke-width="1.51"/><path d="M1616,-175L1785,-164L1922,-233Z" fill="#9b98b3" stroke="#9b98b3" stroke-width="1.51"/><path d="M1922,-233L1785,-164L1926,-24Z" fill="#9890a9" stroke="#9890a9" stroke-width="1.51"/><path d="M1806,990L1805,1183L1949,1196Z" fill="#263895" stroke="#263895" stroke-width="1.51"/><path d="M1755,80L1960,223L1960,71Z" fill="#8288a3" stroke="#8288a3" stroke-width="1.51"/><path d="M1949,1196L1805,1183L1974,1297Z" fill="#1e2e85" stroke="#1e2e85" stroke-width="1.51"/><path d="M1806,990L1949,1196L1976,997Z" fill="#233c93" stroke="#233c93" stroke-width="1.51"/><path d="M1920,854L1806,990L1976,997Z" fill="#24489a" stroke="#24489a" stroke-width="1.51"/><path d="M1791,696L1920,854L1960,709Z" fill="#2a60a6" stroke="#2a60a6" stroke-width="1.51"/><path d="M1805,1183L1750,1345L1974,1297Z" fill="#1d2e83" stroke="#1d2e83" stroke-width="1.51"/><path d="M1736,383L1894,576L1902,350Z" fill="#4f79ab" stroke="#4f79ab" stroke-width="1.51"/><path d="M1732,291L1902,350L1960,223Z" fill="#6780a8" stroke="#6780a8" stroke-width="1.51"/><path d="M1755,80L1732,291L1960,223Z" fill="#7788a9" stroke="#7788a9" stroke-width="1.51"/><path d="M1894,576L1791,696L1960,709Z" fill="#3368a9" stroke="#3368a9" stroke-width="1.51"/><path d="M1926,-24L1755,80L1960,71Z" fill="#8a8ba4" stroke="#8a8ba4" stroke-width="1.51"/><path d="M1622,1326L1531,1346L1750,1345Z" fill="#193980" stroke="#193980" stroke-width="1.51"/><path d="M1736,383L1742,554L1894,576Z" fill="#447aaf" stroke="#447aaf" stroke-width="1.51"/><path d="M1756,861L1806,990L1920,854Z" fill="#2852a2" stroke="#2852a2" stroke-width="1.51"/><path d="M1791,696L1756,861L1920,854Z" fill="#2b5ea8" stroke="#2b5ea8" stroke-width="1.51"/><path d="M1785,-164L1738,-67L1926,-24Z" fill="#9893a8" stroke="#9893a8" stroke-width="1.51"/><path d="M1738,-67L1755,80L1926,-24Z" fill="#9092a8" stroke="#9092a8" stroke-width="1.51"/><path d="M1732,291L1736,383L1902,350Z" fill="#5c82ab" stroke="#5c82ab" stroke-width="1.51"/><path d="M1742,554L1791,696L1894,576Z" fill="#3871ad" stroke="#3871ad" stroke-width="1.51"/><path d="M1736,383L1647,446L1742,554Z" fill="#4a82b0" stroke="#4a82b0" stroke-width="1.51"/><path d="M1613,186L1732,291L1755,80Z" fill="#7992ac" stroke="#7992ac" stroke-width="1.51"/><path d="M1627,722L1618,784L1756,861Z" fill="#276aae" stroke="#276aae" stroke-width="1.51"/><path d="M1742,554L1677,563L1791,696Z" fill="#3777b0" stroke="#3777b0" stroke-width="1.51"/><path d="M1627,722L1756,861L1791,696Z" fill="#296aae" stroke="#296aae" stroke-width="1.51"/><path d="M1622,1326L1750,1345L1805,1183Z" fill="#1d3686" stroke="#1d3686" stroke-width="1.51"/><path d="M1687,1086L1622,1326L1805,1183Z" fill="#243d93" stroke="#243d93" stroke-width="1.51"/><path d="M1756,861L1606,959L1806,990Z" fill="#2655a4" stroke="#2655a4" stroke-width="1.51"/><path d="M1606,959L1687,1086L1806,990Z" fill="#264fa1" stroke="#264fa1" stroke-width="1.51"/><path d="M1687,1086L1805,1183L1806,990Z" fill="#26429b" stroke="#26429b" stroke-width="1.51"/><path d="M1295,-259L1536,-156L1616,-175Z" fill="#9db0bd" stroke="#9db0bd" stroke-width="1.51"/><path d="M1738,-67L1650,44L1755,80Z" fill="#8e98ab" stroke="#8e98ab" stroke-width="1.51"/><path d="M1677,563L1627,722L1791,696Z" fill="#3175b1" stroke="#3175b1" stroke-width="1.51"/><path d="M1616,-175L1738,-67L1785,-164Z" fill="#9a9cb0" stroke="#9a9cb0" stroke-width="1.51"/><path d="M1616,-175L1616,-113L1738,-67Z" fill="#9aa0b0" stroke="#9aa0b0" stroke-width="1.51"/><path d="M1647,446L1677,563L1742,554Z" fill="#3f81b1" stroke="#3f81b1" stroke-width="1.51"/><path d="M1650,44L1613,186L1755,80Z" fill="#8698ac" stroke="#8698ac" stroke-width="1.51"/><path d="M1618,784L1606,959L1756,861Z" fill="#2661aa" stroke="#2661aa" stroke-width="1.51"/><path d="M1528,348L1647,446L1732,291Z" fill="#588db0" stroke="#588db0" stroke-width="1.51"/><path d="M1732,291L1647,446L1736,383Z" fill="#5787ae" stroke="#5787ae" stroke-width="1.51"/><path d="M1616,-113L1650,44L1738,-67Z" fill="#959eac" stroke="#959eac" stroke-width="1.51"/><path d="M1466,1164L1622,1326L1687,1086Z" fill="#234598" stroke="#234598" stroke-width="1.51"/><path d="M1613,186L1528,348L1732,291Z" fill="#6892b0" stroke="#6892b0" stroke-width="1.51"/><path d="M1536,228L1528,348L1613,186Z" fill="#6c99b1" stroke="#6c99b1" stroke-width="1.51"/><path d="M1535,893L1606,959L1618,784Z" fill="#2465ac" stroke="#2465ac" stroke-width="1.51"/><path d="M1647,446L1528,529L1677,563Z" fill="#3f86b4" stroke="#3f86b4" stroke-width="1.51"/><path d="M1528,529L1627,722L1677,563Z" fill="#3480b4" stroke="#3480b4" stroke-width="1.51"/><path d="M1606,959L1466,1164L1687,1086Z" fill="#2550a2" stroke="#2550a2" stroke-width="1.51"/><path d="M1528,529L1523,719L1627,722Z" fill="#2d7fb5" stroke="#2d7fb5" stroke-width="1.51"/><path d="M1433,999L1466,1164L1606,959Z" fill="#265aa6" stroke="#265aa6" stroke-width="1.51"/><path d="M1466,1164L1531,1346L1622,1326Z" fill="#1d438d" stroke="#1d438d" stroke-width="1.51"/><path d="M1469,83L1613,186L1650,44Z" fill="#86a0b0" stroke="#86a0b0" stroke-width="1.51"/><path d="M1616,-113L1506,-113L1650,44Z" fill="#97a4ae" stroke="#97a4ae" stroke-width="1.51"/><path d="M1506,-113L1469,83L1650,44Z" fill="#90a6b0" stroke="#90a6b0" stroke-width="1.51"/><path d="M1528,348L1528,529L1647,446Z" fill="#4a8eb4" stroke="#4a8eb4" stroke-width="1.51"/><path d="M1616,-175L1536,-156L1616,-113Z" fill="#9aa6b4" stroke="#9aa6b4" stroke-width="1.51"/><path d="M1523,719L1618,784L1627,722Z" fill="#2576b3" stroke="#2576b3" stroke-width="1.51"/><path d="M1469,83L1536,228L1613,186Z" fill="#7da0b1" stroke="#7da0b1" stroke-width="1.51"/><path d="M1523,719L1535,893L1618,784Z" fill="#2371b1" stroke="#2371b1" stroke-width="1.51"/><path d="M1536,-156L1506,-113L1616,-113Z" fill="#9aa8b4" stroke="#9aa8b4" stroke-width="1.51"/><path d="M1535,893L1433,999L1606,959Z" fill="#2361a9" stroke="#2361a9" stroke-width="1.51"/><path d="M1433,999L1391,1104L1466,1164Z" fill="#285ba7" stroke="#285ba7" stroke-width="1.51"/><path d="M1359,36L1469,83L1506,-113Z" fill="#92afb4" stroke="#92afb4" stroke-width="1.51"/><path d="M1387,684L1356,889L1523,719Z" fill="#2281b9" stroke="#2281b9" stroke-width="1.51"/><path d="M1387,684L1523,719L1528,529Z" fill="#2d87b8" stroke="#2d87b8" stroke-width="1.51"/><path d="M1528,348L1367,399L1528,529Z" fill="#4d96b8" stroke="#4d96b8" stroke-width="1.51"/><path d="M1466,1164L1343,1325L1531,1346Z" fill="#1f4b90" stroke="#1f4b90" stroke-width="1.51"/><path d="M1523,719L1356,889L1535,893Z" fill="#2374b3" stroke="#2374b3" stroke-width="1.51"/><path d="M1356,889L1433,999L1535,893Z" fill="#236baf" stroke="#236baf" stroke-width="1.51"/><path d="M1358,264L1528,348L1536,228Z" fill="#679eb5" stroke="#679eb5" stroke-width="1.51"/><path d="M1469,83L1358,264L1536,228Z" fill="#79a6b4" stroke="#79a6b4" stroke-width="1.51"/><path d="M1295,-259L1506,-113L1536,-156Z" fill="#9db3bc" stroke="#9db3bc" stroke-width="1.51"/><path d="M1296,557L1387,684L1528,529Z" fill="#3292bc" stroke="#3292bc" stroke-width="1.51"/><path d="M1320,-40L1359,36L1506,-113Z" fill="#97b5b6" stroke="#97b5b6" stroke-width="1.51"/><path d="M1358,264L1367,399L1528,348Z" fill="#5aa0b8" stroke="#5aa0b8" stroke-width="1.51"/><path d="M1367,399L1296,557L1528,529Z" fill="#4099bc" stroke="#4099bc" stroke-width="1.51"/><path d="M1295,-259L1320,-40L1506,-113Z" fill="#9db9bb" stroke="#9db9bb" stroke-width="1.51"/><path d="M1391,1104L1343,1325L1466,1164Z" fill="#27549e" stroke="#27549e" stroke-width="1.51"/><path d="M1359,36L1358,264L1469,83Z" fill="#86afb6" stroke="#86afb6" stroke-width="1.51"/><path d="M1197,200L1358,264L1359,36Z" fill="#7fb5ba" stroke="#7fb5ba" stroke-width="1.51"/><path d="M1215,715L1356,889L1387,684Z" fill="#208abd" stroke="#208abd" stroke-width="1.51"/><path d="M1334,987L1391,1104L1433,999Z" fill="#2664ab" stroke="#2664ab" stroke-width="1.51"/><path d="M1356,889L1334,987L1433,999Z" fill="#236daf" stroke="#236daf" stroke-width="1.51"/><path d="M1295,-259L1193,-114L1320,-40Z" fill="#9ec3bf" stroke="#9ec3bf" stroke-width="1.51"/><path d="M1215,715L1206,876L1356,889Z" fill="#2087bc" stroke="#2087bc" stroke-width="1.51"/><path d="M1221,516L1296,557L1367,399Z" fill="#3fa3c0" stroke="#3fa3c0" stroke-width="1.51"/><path d="M1296,557L1215,715L1387,684Z" fill="#2a96c0" stroke="#2a96c0" stroke-width="1.51"/><path d="M1334,987L1223,980L1391,1104Z" fill="#266baf" stroke="#266baf" stroke-width="1.51"/><path d="M1223,980L1152,1167L1391,1104Z" fill="#2a6bae" stroke="#2a6bae" stroke-width="1.51"/><path d="M1152,1167L1343,1325L1391,1104Z" fill="#285ca2" stroke="#285ca2" stroke-width="1.51"/><path d="M1161,89L1197,200L1359,36Z" fill="#8abebb" stroke="#8abebb" stroke-width="1.51"/><path d="M1358,264L1133,349L1367,399Z" fill="#5aacbd" stroke="#5aacbd" stroke-width="1.51"/><path d="M1133,349L1221,516L1367,399Z" fill="#4dabc0" stroke="#4dabc0" stroke-width="1.51"/><path d="M1152,1167L1140,1326L1343,1325Z" fill="#265d99" stroke="#265d99" stroke-width="1.51"/><path d="M1223,980L1334,987L1356,889Z" fill="#2373b2" stroke="#2373b2" stroke-width="1.51"/><path d="M1206,876L1223,980L1356,889Z" fill="#237cb6" stroke="#237cb6" stroke-width="1.51"/><path d="M1197,200L1133,349L1358,264Z" fill="#6bb4bd" stroke="#6bb4bd" stroke-width="1.51"/><path d="M1320,-40L1161,89L1359,36Z" fill="#91bdba" stroke="#91bdba" stroke-width="1.51"/><path d="M1160,-200L1193,-114L1295,-259Z" fill="#a2c8c5" stroke="#a2c8c5" stroke-width="1.51"/><path d="M1193,-114L1161,89L1320,-40Z" fill="#98c3bb" stroke="#98c3bb" stroke-width="1.51"/><path d="M1084,-247L1160,-200L1295,-259Z" fill="#a5cbc9" stroke="#a5cbc9" stroke-width="1.51"/><path d="M1221,516L1215,715L1296,557Z" fill="#2f9fc2" stroke="#2f9fc2" stroke-width="1.51"/><path d="M1076,-87L1161,89L1193,-114Z" fill="#9cc9bb" stroke="#9cc9bb" stroke-width="1.51"/><path d="M1086,296L1133,349L1197,200Z" fill="#6bbabe" stroke="#6bbabe" stroke-width="1.51"/><path d="M1029,726L1006,813L1206,876Z" fill="#2e94be" stroke="#2e94be" stroke-width="1.51"/><path d="M997,575L1029,726L1215,715Z" fill="#32a2c3" stroke="#32a2c3" stroke-width="1.51"/><path d="M1029,726L1206,876L1215,715Z" fill="#2794c0" stroke="#2794c0" stroke-width="1.51"/><path d="M997,575L1215,715L1221,516Z" fill="#34a5c3" stroke="#34a5c3" stroke-width="1.51"/><path d="M1133,349L997,575L1221,516Z" fill="#47afc2" stroke="#47afc2" stroke-width="1.51"/><path d="M1206,876L1022,1003L1223,980Z" fill="#2c7eb5" stroke="#2c7eb5" stroke-width="1.51"/><path d="M1022,1003L1152,1167L1223,980Z" fill="#3275b1" stroke="#3275b1" stroke-width="1.51"/><path d="M1006,358L997,575L1133,349Z" fill="#53b6c1" stroke="#53b6c1" stroke-width="1.51"/><path d="M1006,813L1022,1003L1206,876Z" fill="#3089b9" stroke="#3089b9" stroke-width="1.51"/><path d="M1160,-200L1076,-87L1193,-114Z" fill="#a2cbc0" stroke="#a2cbc0" stroke-width="1.51"/><path d="M1161,89L985,112L1197,200Z" fill="#8ac5bc" stroke="#8ac5bc" stroke-width="1.51"/><path d="M985,112L1086,296L1197,200Z" fill="#7dc2bd" stroke="#7dc2bd" stroke-width="1.51"/><path d="M1022,1003L1009,1156L1152,1167Z" fill="#3873ae" stroke="#3873ae" stroke-width="1.51"/><path d="M1020,1314L1140,1326L1152,1167Z" fill="#2e639a" stroke="#2e639a" stroke-width="1.51"/><path d="M1009,1156L1020,1314L1152,1167Z" fill="#356aa4" stroke="#356aa4" stroke-width="1.51"/><path d="M1084,-247L1076,-87L1160,-200Z" fill="#a5cfc4" stroke="#a5cfc4" stroke-width="1.51"/><path d="M1076,-87L985,112L1161,89Z" fill="#96cbbc" stroke="#96cbbc" stroke-width="1.51"/><path d="M1086,296L1006,358L1133,349Z" fill="#61babf" stroke="#61babf" stroke-width="1.51"/><path d="M861,-107L985,112L1076,-87Z" fill="#a0d4bc" stroke="#a0d4bc" stroke-width="1.51"/><path d="M861,-107L1076,-87L1084,-247Z" fill="#a7d4c1" stroke="#a7d4c1" stroke-width="1.51"/><path d="M862,-254L861,-107L1084,-247Z" fill="#acdac7" stroke="#acdac7" stroke-width="1.51"/><path d="M928,254L1006,358L1086,296Z" fill="#6ac0bf" stroke="#6ac0bf" stroke-width="1.51"/><path d="M985,112L928,254L1086,296Z" fill="#7dc6be" stroke="#7dc6be" stroke-width="1.51"/><path d="M861,-107L876,93L985,112Z" fill="#9ed5bb" stroke="#9ed5bb" stroke-width="1.51"/><path d="M877,528L997,575L1006,358Z" fill="#4cb9c3" stroke="#4cb9c3" stroke-width="1.51"/><path d="M929,1115L1009,1156L1022,1003Z" fill="#3c79b0" stroke="#3c79b0" stroke-width="1.51"/><path d="M831,790L848,1033L1006,813Z" fill="#4095ba" stroke="#4095ba" stroke-width="1.51"/><path d="M872,373L877,528L1006,358Z" fill="#5cbec1" stroke="#5cbec1" stroke-width="1.51"/><path d="M929,1115L852,1294L1009,1156Z" fill="#4073a7" stroke="#4073a7" stroke-width="1.51"/><path d="M1009,1156L852,1294L1020,1314Z" fill="#376d9d" stroke="#376d9d" stroke-width="1.51"/><path d="M1006,813L848,1033L1022,1003Z" fill="#378ab6" stroke="#378ab6" stroke-width="1.51"/><path d="M892,670L1006,813L1029,726Z" fill="#33a3c2" stroke="#33a3c2" stroke-width="1.51"/><path d="M997,575L892,670L1029,726Z" fill="#39aac3" stroke="#39aac3" stroke-width="1.51"/><path d="M848,1033L929,1115L1022,1003Z" fill="#4080b1" stroke="#4080b1" stroke-width="1.51"/><path d="M892,670L831,790L1006,813Z" fill="#3ca4c1" stroke="#3ca4c1" stroke-width="1.51"/><path d="M928,254L872,373L1006,358Z" fill="#68c3bf" stroke="#68c3bf" stroke-width="1.51"/><path d="M113,-258L385,-192L575,-221Z" fill="#e1f3c0" stroke="#e1f3c0" stroke-width="1.51"/><path d="M876,93L928,254L985,112Z" fill="#8dcfbd" stroke="#8dcfbd" stroke-width="1.51"/><path d="M877,528L892,670L997,575Z" fill="#43b3c3" stroke="#43b3c3" stroke-width="1.51"/><path d="M717,1248L475,1332L852,1294Z" fill="#517395" stroke="#517395" stroke-width="1.51"/><path d="M831,790L749,852L848,1033Z" fill="#4b96b8" stroke="#4b96b8" stroke-width="1.51"/><path d="M776,-59L775,33L861,-107Z" fill="#addbb9" stroke="#addbb9" stroke-width="1.51"/><path d="M861,-107L775,33L876,93Z" fill="#a6d8ba" stroke="#a6d8ba" stroke-width="1.51"/><path d="M876,93L785,289L928,254Z" fill="#87cdbc" stroke="#87cdbc" stroke-width="1.51"/><path d="M785,289L872,373L928,254Z" fill="#74c7be" stroke="#74c7be" stroke-width="1.51"/><path d="M743,1164L852,1294L929,1115Z" fill="#4a75a6" stroke="#4a75a6" stroke-width="1.51"/><path d="M848,1033L743,1164L929,1115Z" fill="#4b7dae" stroke="#4b7dae" stroke-width="1.51"/><path d="M783,-199L861,-107L862,-254Z" fill="#b2ddc3" stroke="#b2ddc3" stroke-width="1.51"/><path d="M749,852L750,1040L848,1033Z" fill="#4f8db3" stroke="#4f8db3" stroke-width="1.51"/><path d="M575,-221L783,-199L862,-254Z" fill="#bae2c5" stroke="#bae2c5" stroke-width="1.51"/><path d="M775,33L785,289L876,93Z" fill="#99d4ba" stroke="#99d4ba" stroke-width="1.51"/><path d="M872,373L779,524L877,528Z" fill="#5cbec1" stroke="#5cbec1" stroke-width="1.51"/><path d="M721,700L831,790L892,670Z" fill="#4aabc1" stroke="#4aabc1" stroke-width="1.51"/><path d="M877,528L779,524L892,670Z" fill="#4eb7c2" stroke="#4eb7c2" stroke-width="1.51"/><path d="M779,524L721,700L892,670Z" fill="#52b3c1" stroke="#52b3c1" stroke-width="1.51"/><path d="M750,1040L743,1164L848,1033Z" fill="#5182ae" stroke="#5182ae" stroke-width="1.51"/><path d="M743,1164L717,1248L852,1294Z" fill="#4d749e" stroke="#4d749e" stroke-width="1.51"/><path d="M678,374L779,524L872,373Z" fill="#6ac3bf" stroke="#6ac3bf" stroke-width="1.51"/><path d="M785,289L678,374L872,373Z" fill="#73c8be" stroke="#73c8be" stroke-width="1.51"/><path d="M586,1249L475,1332L717,1248Z" fill="#5d7896" stroke="#5d7896" stroke-width="1.51"/><path d="M775,33L602,219L785,289Z" fill="#98d5ba" stroke="#98d5ba" stroke-width="1.51"/><path d="M783,-199L776,-59L861,-107Z" fill="#b2ddbd" stroke="#b2ddbd" stroke-width="1.51"/><path d="M721,700L749,852L831,790Z" fill="#4fa6bd" stroke="#4fa6bd" stroke-width="1.51"/><path d="M749,852L613,892L750,1040Z" fill="#5795b4" stroke="#5795b4" stroke-width="1.51"/><path d="M552,106L602,219L775,33Z" fill="#a8dcb8" stroke="#a8dcb8" stroke-width="1.51"/><path d="M569,-57L775,33L776,-59Z" fill="#b2deb7" stroke="#b2deb7" stroke-width="1.51"/><path d="M637,679L721,700L779,524Z" fill="#5ab7c0" stroke="#5ab7c0" stroke-width="1.51"/><path d="M569,-57L776,-59L783,-199Z" fill="#b7e1ba" stroke="#b7e1ba" stroke-width="1.51"/><path d="M575,-221L569,-57L783,-199Z" fill="#bfe5be" stroke="#bfe5be" stroke-width="1.51"/><path d="M602,219L678,374L785,289Z" fill="#84cebb" stroke="#84cebb" stroke-width="1.51"/><path d="M546,588L637,679L779,524Z" fill="#63bdbf" stroke="#63bdbf" stroke-width="1.51"/><path d="M678,374L546,588L779,524Z" fill="#6ac3bf" stroke="#6ac3bf" stroke-width="1.51"/><path d="M569,-57L552,106L775,33Z" fill="#b3e0b7" stroke="#b3e0b7" stroke-width="1.51"/><path d="M566,393L546,588L678,374Z" fill="#7ac9bd" stroke="#7ac9bd" stroke-width="1.51"/><path d="M637,679L613,892L721,700Z" fill="#5badbe" stroke="#5badbe" stroke-width="1.51"/><path d="M721,700L613,892L749,852Z" fill="#57a4bb" stroke="#57a4bb" stroke-width="1.51"/><path d="M613,892L554,962L750,1040Z" fill="#5e93b2" stroke="#5e93b2" stroke-width="1.51"/><path d="M554,962L604,1120L750,1040Z" fill="#608bae" stroke="#608bae" stroke-width="1.51"/><path d="M604,1120L743,1164L750,1040Z" fill="#5a82ac" stroke="#5a82ac" stroke-width="1.51"/><path d="M604,1120L717,1248L743,1164Z" fill="#597ca6" stroke="#597ca6" stroke-width="1.51"/><path d="M604,1120L586,1249L717,1248Z" fill="#5d7ba1" stroke="#5d7ba1" stroke-width="1.51"/><path d="M461,739L613,892L637,679Z" fill="#69afbc" stroke="#69afbc" stroke-width="1.51"/><path d="M602,219L566,393L678,374Z" fill="#86cfbb" stroke="#86cfbb" stroke-width="1.51"/><path d="M546,588L461,739L637,679Z" fill="#70babe" stroke="#70babe" stroke-width="1.51"/><path d="M463,371L566,393L602,219Z" fill="#8fd3ba" stroke="#8fd3ba" stroke-width="1.51"/><path d="M379,1092L586,1249L604,1120Z" fill="#7084a8" stroke="#7084a8" stroke-width="1.51"/><path d="M554,962L379,1092L604,1120Z" fill="#718fad" stroke="#718fad" stroke-width="1.51"/><path d="M390,809L554,962L613,892Z" fill="#70a2b5" stroke="#70a2b5" stroke-width="1.51"/><path d="M461,739L390,809L613,892Z" fill="#75adb9" stroke="#75adb9" stroke-width="1.51"/><path d="M379,492L546,588L566,393Z" fill="#83cbbd" stroke="#83cbbd" stroke-width="1.51"/><path d="M463,371L379,492L566,393Z" fill="#8fd1bb" stroke="#8fd1bb" stroke-width="1.51"/><path d="M411,38L552,106L569,-57Z" fill="#c0e5b6" stroke="#c0e5b6" stroke-width="1.51"/><path d="M385,-192L569,-57L575,-221Z" fill="#cdebbc" stroke="#cdebbc" stroke-width="1.51"/><path d="M552,106L392,185L602,219Z" fill="#afdeb7" stroke="#afdeb7" stroke-width="1.51"/><path d="M392,185L463,371L602,219Z" fill="#a3dab8" stroke="#a3dab8" stroke-width="1.51"/><path d="M113,-258L246,-188L385,-192Z" fill="#e7f6bf" stroke="#e7f6bf" stroke-width="1.51"/><path d="M395,967L379,1092L554,962Z" fill="#7a97ae" stroke="#7a97ae" stroke-width="1.51"/><path d="M379,1092L475,1332L586,1249Z" fill="#6f809d" stroke="#6f809d" stroke-width="1.51"/><path d="M390,809L395,967L554,962Z" fill="#7aa2b3" stroke="#7aa2b3" stroke-width="1.51"/><path d="M397,-9L411,38L569,-57Z" fill="#c9e9b4" stroke="#c9e9b4" stroke-width="1.51"/><path d="M385,-192L397,-9L569,-57Z" fill="#d1ecb4" stroke="#d1ecb4" stroke-width="1.51"/><path d="M379,1092L315,1185L475,1332Z" fill="#7c85a0" stroke="#7c85a0" stroke-width="1.51"/><path d="M338,650L461,739L546,588Z" fill="#7fc0bd" stroke="#7fc0bd" stroke-width="1.51"/><path d="M411,38L392,185L552,106Z" fill="#bfe5b5" stroke="#bfe5b5" stroke-width="1.51"/><path d="M379,492L338,650L546,588Z" fill="#86c9bd" stroke="#86c9bd" stroke-width="1.51"/><path d="M329,546L338,650L379,492Z" fill="#8fcebd" stroke="#8fcebd" stroke-width="1.51"/><path d="M392,185L316,272L463,371Z" fill="#abddb7" stroke="#abddb7" stroke-width="1.51"/><path d="M315,1185L308,1330L475,1332Z" fill="#778093" stroke="#778093" stroke-width="1.51"/><path d="M264,380L379,492L463,371Z" fill="#9cd6ba" stroke="#9cd6ba" stroke-width="1.51"/><path d="M316,272L264,380L463,371Z" fill="#a5dbb8" stroke="#a5dbb8" stroke-width="1.51"/><path d="M338,650L390,809L461,739Z" fill="#83bbbc" stroke="#83bbbc" stroke-width="1.51"/><path d="M84,1281L14,1299L308,1330Z" fill="#848490" stroke="#848490" stroke-width="1.51"/><path d="M338,650L258,815L390,809Z" fill="#89bbbb" stroke="#89bbbb" stroke-width="1.51"/><path d="M390,809L304,946L395,967Z" fill="#84a6b2" stroke="#84a6b2" stroke-width="1.51"/><path d="M304,946L379,1092L395,967Z" fill="#849bae" stroke="#849bae" stroke-width="1.51"/><path d="M385,-192L266,-51L397,-9Z" fill="#dbf1b3" stroke="#dbf1b3" stroke-width="1.51"/><path d="M397,-9L318,43L411,38Z" fill="#cfecb4" stroke="#cfecb4" stroke-width="1.51"/><path d="M318,43L392,185L411,38Z" fill="#c9eab4" stroke="#c9eab4" stroke-width="1.51"/><path d="M246,-188L266,-51L385,-192Z" fill="#e1f3b8" stroke="#e1f3b8" stroke-width="1.51"/><path d="M258,815L304,946L390,809Z" fill="#89aeb5" stroke="#89aeb5" stroke-width="1.51"/><path d="M266,-51L318,43L397,-9Z" fill="#d6efb3" stroke="#d6efb3" stroke-width="1.51"/><path d="M318,43L316,272L392,185Z" fill="#c2e7b5" stroke="#c2e7b5" stroke-width="1.51"/><path d="M144,1149L315,1185L379,1092Z" fill="#898da7" stroke="#898da7" stroke-width="1.51"/><path d="M304,946L144,1149L379,1092Z" fill="#8996ab" stroke="#8996ab" stroke-width="1.51"/><path d="M264,380L329,546L379,492Z" fill="#9ad4bb" stroke="#9ad4bb" stroke-width="1.51"/><path d="M133,242L316,272L318,43Z" fill="#c4e7b5" stroke="#c4e7b5" stroke-width="1.51"/><path d="M123,43L133,242L318,43Z" fill="#d4eeb3" stroke="#d4eeb3" stroke-width="1.51"/><path d="M264,380L132,503L329,546Z" fill="#9fd6bb" stroke="#9fd6bb" stroke-width="1.51"/><path d="M329,546L192,681L338,650Z" fill="#92c9bc" stroke="#92c9bc" stroke-width="1.51"/><path d="M192,681L258,815L338,650Z" fill="#90c1bb" stroke="#90c1bb" stroke-width="1.51"/><path d="M144,1149L84,1281L308,1330Z" fill="#868798" stroke="#868798" stroke-width="1.51"/><path d="M144,1149L308,1330L315,1185Z" fill="#84879d" stroke="#84879d" stroke-width="1.51"/><path d="M132,503L192,681L329,546Z" fill="#98cfbc" stroke="#98cfbc" stroke-width="1.51"/><path d="M86,937L144,1149L304,946Z" fill="#909ead" stroke="#909ead" stroke-width="1.51"/><path d="M266,-51L123,43L318,43Z" fill="#daf0b3" stroke="#daf0b3" stroke-width="1.51"/><path d="M133,242L264,380L316,272Z" fill="#b4e0b7" stroke="#b4e0b7" stroke-width="1.51"/><path d="M258,815L154,817L304,946Z" fill="#8eafb5" stroke="#8eafb5" stroke-width="1.51"/><path d="M154,817L86,937L304,946Z" fill="#91abb2" stroke="#91abb2" stroke-width="1.51"/><path d="M192,681L154,817L258,815Z" fill="#92bcb9" stroke="#92bcb9" stroke-width="1.51"/><path d="M133,242L127,377L264,380Z" fill="#b2dfb7" stroke="#b2dfb7" stroke-width="1.51"/><path d="M127,377L132,503L264,380Z" fill="#aadab9" stroke="#aadab9" stroke-width="1.51"/><path d="M246,-188L97,-52L266,-51Z" fill="#e5f5b4" stroke="#e5f5b4" stroke-width="1.51"/><path d="M97,-52L123,43L266,-51Z" fill="#e1f3b2" stroke="#e1f3b2" stroke-width="1.51"/><path d="M113,-258L97,-52L246,-188Z" fill="#ecf7ba" stroke="#ecf7ba" stroke-width="1.51"/><path d="M37,-88L97,-52L113,-258Z" fill="#eef9b6" stroke="#eef9b6" stroke-width="1.51"/><path d="M123,43L2,143L133,242Z" fill="#d6efb3" stroke="#d6efb3" stroke-width="1.51"/><path d="M34,660L154,817L192,681Z" fill="#99c4bb" stroke="#99c4bb" stroke-width="1.51"/><path d="M132,503L34,660L192,681Z" fill="#9ecebc" stroke="#9ecebc" stroke-width="1.51"/><path d="M4,-243L37,-88L113,-258Z" fill="#f3fabd" stroke="#f3fabd" stroke-width="1.51"/><path d="M127,377L36,371L132,503Z" fill="#afddb9" stroke="#afddb9" stroke-width="1.51"/><path d="M36,371L127,377L133,242Z" fill="#b8e2b6" stroke="#b8e2b6" stroke-width="1.51"/><path d="M86,937L9,935L144,1149Z" fill="#97a0ad" stroke="#97a0ad" stroke-width="1.51"/><path d="M9,935L-57,1160L144,1149Z" fill="#9899ac" stroke="#9899ac" stroke-width="1.51"/><path d="M-48,829L86,937L154,817Z" fill="#9bb3b4" stroke="#9bb3b4" stroke-width="1.51"/><path d="M34,660L-48,829L154,817Z" fill="#9dc0ba" stroke="#9dc0ba" stroke-width="1.51"/><path d="M-48,829L9,935L86,937Z" fill="#9bafb5" stroke="#9bafb5" stroke-width="1.51"/><path d="M-53,508L34,660L132,503Z" fill="#a5d5bd" stroke="#a5d5bd" stroke-width="1.51"/><path d="M-26,271L36,371L133,242Z" fill="#c0e5b7" stroke="#c0e5b7" stroke-width="1.51"/><path d="M-57,1160L84,1281L144,1149Z" fill="#938da0" stroke="#938da0" stroke-width="1.51"/><path d="M36,371L-53,508L132,503Z" fill="#aedcbb" stroke="#aedcbb" stroke-width="1.51"/><path d="M2,143L-26,271L133,242Z" fill="#ccebb6" stroke="#ccebb6" stroke-width="1.51"/><path d="M97,-52L37,-88L123,43Z" fill="#e8f6b2" stroke="#e8f6b2" stroke-width="1.51"/><path d="M37,-88L2,143L123,43Z" fill="#e3f4b3" stroke="#e3f4b3" stroke-width="1.51"/><path d="M-57,1160L14,1299L84,1281Z" fill="#908a9b" stroke="#908a9b" stroke-width="1.51"/><path d="M-148,34L2,143L37,-88Z" fill="#e6f5b8" stroke="#e6f5b8" stroke-width="1.51"/><path d="M-133,671L-128,798L-48,829Z" fill="#a0c2c4" stroke="#a0c2c4" stroke-width="1.51"/><path d="M-216,1028L-57,1160L9,935Z" fill="#9b9eb4" stroke="#9b9eb4" stroke-width="1.51"/><path d="M-57,1160L-119,1273L14,1299Z" fill="#918ba0" stroke="#918ba0" stroke-width="1.51"/><path d="M-133,671L-48,829L34,660Z" fill="#a1c7c2" stroke="#a1c7c2" stroke-width="1.51"/><path d="M-53,508L-133,671L34,660Z" fill="#a5d1c3" stroke="#a5d1c3" stroke-width="1.51"/><path d="M-26,271L-116,412L36,371Z" fill="#bbe2bd" stroke="#bbe2bd" stroke-width="1.51"/><path d="M-116,412L-53,508L36,371Z" fill="#b3debf" stroke="#b3debf" stroke-width="1.51"/><path d="M-148,-78L-148,34L37,-88Z" fill="#eff8bb" stroke="#eff8bb" stroke-width="1.51"/><path d="M4,-243L-143,-171L37,-88Z" fill="#f4fbc0" stroke="#f4fbc0" stroke-width="1.51"/><path d="M-143,-171L-148,-78L37,-88Z" fill="#f3fabe" stroke="#f3fabe" stroke-width="1.51"/><path d="M-216,1028L-187,1122L-57,1160Z" fill="#9c98b5" stroke="#9c98b5" stroke-width="1.51"/><path d="M-168,257L-26,271L2,143Z" fill="#cfecbd" stroke="#cfecbd" stroke-width="1.51"/><path d="M-48,829L-216,1028L9,935Z" fill="#9cabba" stroke="#9cabba" stroke-width="1.51"/><path d="M-177,574L-133,671L-53,508Z" fill="#a8d4c7" stroke="#a8d4c7" stroke-width="1.51"/><path d="M-148,34L-168,257L2,143Z" fill="#ddf2be" stroke="#ddf2be" stroke-width="1.51"/><path d="M-128,798L-216,1028L-48,829Z" fill="#9eb2bf" stroke="#9eb2bf" stroke-width="1.51"/><path d="M-168,257L-116,412L-26,271Z" fill="#c2e6c1" stroke="#c2e6c1" stroke-width="1.51"/><path d="M-187,1122L-119,1273L-57,1160Z" fill="#9890ad" stroke="#9890ad" stroke-width="1.51"/><path d="M-116,412L-177,574L-53,508Z" fill="#aedbc6" stroke="#aedbc6" stroke-width="1.51"/><path d="M-168,257L-177,574L-116,412Z" fill="#b8e0c6" stroke="#b8e0c6" stroke-width="1.51"/><path d="M-133,671L-177,574L-128,798Z" fill="#a5ccc8" stroke="#a5ccc8" stroke-width="1.51"/><path d="M-177,574L-216,1028L-128,798Z" fill="#a1bec6" stroke="#a1bec6" stroke-width="1.51"/><path d="M-148,-78L-168,257L-148,34Z" fill="#e6f5c0" stroke="#e6f5c0" stroke-width="1.51"/><path d="M-216,1028L-177,574L-168,257Z" fill="#a8d2cb" stroke="#a8d2cb" stroke-width="1.51"/></svg>